<svg xmlns="http://www.w3.org/2000/svg" width="470.282" height="162" viewBox="0 0 470.282 162">
  <defs>
    <style>
      .cls-1 {
        fill: cyan;
        fill-rule: evenodd;
      }
    </style>
  </defs>
  <path id="logo" class="cls-1" d="M430.782,145.263a76.69,76.69,0,0,1-24.089,5.616c-6.5.363-11.208-.422-17.964-2.293q-2.032-.561-4.077-1.255a76.907,76.907,0,0,1-25.071-13.786A151.871,151.871,0,0,1,340.4,114.2q-2.658-3.494-5.236-6.966c12.589-8.438,30.555-19.672,44.462-26.866a130.326,130.326,0,0,0,9.519,12.056,33.717,33.717,0,0,0,14.813,9.892,21.861,21.861,0,0,0,14.032-.036c4.519-1.439,7.631-4.641,9.5-9.828C431.664,80.824,421.95,71.9,412.4,68.835a33.108,33.108,0,0,0-19.617.228c-2.964.859-7.66,2.754-11.266,4.286-2.923,1.242-8.326,3.964-9.991,4.877-13.743,7.534-29.907,17.76-41.148,25.356-2.347,1.4-12.262,6.789-14.85,7.992a133.914,133.914,0,0,1-17.6,6.745c-26.272,6.419-44.6-3.111-49.759-5.615-22.423-12.778-30.031-29.453-32.138-41.8-2.757-16.159,3.011-29.62,6.953-36.7,3.952-7.117,10.323-13.816,17.031-18.88A63.163,63.163,0,0,1,262.7,4.474c8.958-2.409,18.7-2.673,28.837-1.538a78.389,78.389,0,0,1,31.037,9.7,94.65,94.65,0,0,1,22.761,18.338c1.983,2.123,3.907,4.338,5.794,6.589-2.844,1.773-34.876,21.9-45.211,28.89-2.89-3.487-7.136-8.949-10.854-11.884-5-3.948-11.1-6.692-16.891-7.012-11.537-.494-20.211,4.018-21.789,14.027a15.112,15.112,0,0,0,3.751,12.685c3.2,3.873,9.136,6.852,15.613,7.674a34.361,34.361,0,0,0,18.37-2.833,138.17,138.17,0,0,0,15.613-8.047c-0.05-.065,27.4-17.96,41.955-27.092a141.759,141.759,0,0,1,13.224-6.71c9.262-4.091,19.076-7.753,29.164-9.527A68.959,68.959,0,0,1,450,41.929,64.7,64.7,0,0,1,465.62,61.88C473.151,77.09,479.079,125.735,430.782,145.263ZM214.668,17.228c-16.6,17.658-23.106,27.267-36.2,44.42,13.593,14.979,22.691,25.967,36.153,39.978,0,0,13.82,14.656,24.5,16.965-26.3-.222-44.3,1.148-57.9,2.99-9.591-10.865-15.327-17.873-26.272-29.261,1.4,11.179,1.872,16.682,3.043,25.585,0.351,2.664,1.534,7.217-9.362,9.542a275.811,275.811,0,0,0-26.923,6.726c-7-26.83-28.013-118-28.013-118,14.937-3.024,25.658-5.9,40.763-7.817,6.477-.569,7.774,4.55,8.329,7.326,1.319,6.614,3.125,18.819,4.4,25.431,7.356-10.887,17.464-26.353,25.4-37.07,0,0,24.443-4.553,67.622-3.151C228.145,4.641,220.885,11.112,214.668,17.228ZM62.26,62.413a20.831,20.831,0,0,0-3.323,1.71c-1,.643-3.711,2.639-2.562,5.4,0.391,0.994,1.792,1.884,4.181,2.7s5.258,1.741,8.59,2.791,7.008,2.338,11.012,3.879a53.924,53.924,0,0,1,11.414,6.082c3.6,2.512,12.89,9.646,15.643,18.406,4.2,13.378,1.147,23.139-1.112,27.992a24.7,24.7,0,0,1-10.787,11.673c-11.531,6.47-40.648,17.719-43.43,18.759-10.787,4.033-14.01-8.232-15.345-11.033-0.886-1.85-1.638-3.605-2.345-5.328-5.3-10.123-18.333-16.67-25.888-19.991a95.813,95.813,0,0,0,20.169-2.01c4.515-1.149,12.043-3.329,14.481-4.218,6.08-1.964,11.34-4.8,13.754-7.777,2.3-2.832,2.111-5.672-1.059-7.573a31.487,31.487,0,0,0-6.4-2.425C41.776,99.54,25.158,95.486,16.285,91.07,4.35,85.131.378,74.735,0.391,69.209A30.95,30.95,0,0,1,4.5,53.661,43.149,43.149,0,0,1,16.384,40.754c5.169-3.886,11.717-5.861,18.531-8.269,3.181-1.127,17.656-6,49.75-13.826l9.007,35.406c-10.709,2.414-20.384,5.048-25.7,6.457C66.438,60.927,63.476,61.917,62.26,62.413Zm111.822,82.729c-1.681.358-3.95,0.9-5.626,1.294q0.578,2.5,1.153,5c1.964-.459,4.521-1.06,6.493-1.472q0.669,3.246,1.336,6.494-9.609,1.984-19.085,4.734-0.912-3.166-1.827-6.332c1.942-.568,4.251-1.2,6.2-1.721q-0.654-2.476-1.307-4.953c-1.666.446-3.69,1-5.349,1.477q-0.883-3.1-1.769-6.194,9.157-2.654,18.446-4.644Q173.418,141.983,174.082,145.142Zm5.172-7.548q8.8-1.987,17.687-3.376c0.635,4.131.707,9.006-.793,11.99,1.041-.017,3.047-0.069,4.421-0.252,0.236,2.661.345,3.858,0.588,6.518a30.017,30.017,0,0,1-9.5-.082,25.414,25.414,0,0,1-8.876,3.513q-1.08-3.846-2.176-7.689c5.606-1.334,7.773-2.844,8.28-5.569q-4.074.783-8.128,1.7Q180,140.967,179.254,137.594Zm31.925,3.083a9.971,9.971,0,0,1-.9,2.616c-2.746.074-4.079,0.117-6.828,0.281a26.573,26.573,0,0,0,1.822-10.252c2.66-.326,3.909-0.535,6.577-0.781a13.259,13.259,0,0,1,.048,1.55c3.543-.328,8.508-0.662,12.06-0.848q0.166,3.246.332,6.492-1.389.07-2.776,0.157c0.224,8.636-3.3,10.984-13.994,12.211q-0.85-3.486-1.728-6.969c6.747-.81,7.856-1.634,7.746-4.624C213.225,140.539,211.494,140.647,211.179,140.677Zm32.61,5.41H228.073v-6.924h15.716v6.924Zm10.524-1q0.108-2.591.214-5.182c-1.713-.073-4.022-0.154-5.735-0.193q0.071-3.26.14-6.521,9.456,0.206,18.905,1.079-0.294,3.255-.591,6.51c-1.71-.159-4.056-0.428-5.767-0.553q-0.187,2.587-.374,5.178c2,0.148,4.644.447,6.647,0.643q-0.318,3.34-.639,6.68-9.757-.975-19.542-1.182,0.063-3.338.125-6.672C249.7,144.917,252.306,145.005,254.313,145.091Zm39.349-1.211a46.1,46.1,0,0,1-7.054,2.126c-0.454,3.179-.748,5.845-1.2,9.024-2.742-.4-4.434-0.611-7.182-0.923q0.4-3.609.8-7.218c-1.8.145-3.633,0.241-5.479,0.289q-0.921-3.891-1.919-7.773c7.384-.222,14.828-1.5,19.036-3.145Q292.214,140.063,293.662,143.88Zm13.923-3.305c-0.283,1.109-.975,3.741-1.259,4.849a51.425,51.425,0,0,1,8.438,5.762c-1.275,2.5-2.07,3.914-3.318,6.425a47.263,47.263,0,0,0-6.841-5.393q-0.831,3.243-1.665,6.484-4.032-1.065-8.086-1.99,2.034-9.123,4.051-18.252Q303.256,139.444,307.585,140.575Z" transform="translate(-0.406 -0.625)"/>
</svg>
